<?xml version="1.0" standalone="no"?>
<!DOCTYPE svg PUBLIC "-//W3C//DTD SVG 20010904//EN"
 "http://www.w3.org/TR/2001/REC-SVG-20010904/DTD/svg10.dtd">
<svg version="1.0" xmlns="http://www.w3.org/2000/svg"
 width="1280.000000pt" height="646.000000pt" viewBox="0 0 1280.000000 646.000000"
 preserveAspectRatio="xMidYMid meet">
<metadata>
Created by potrace 1.15, written by Peter Selinger 2001-2017
</metadata>
<g transform="translate(0.000000,646.000000) scale(0.100000,-0.100000)"
fill="#000000" stroke="none">
<path d="M0 6409 l0 -54 49 -28 c28 -15 98 -59 157 -98 760 -501 1294 -1252
1513 -2127 78 -313 105 -539 105 -872 0 -129 -5 -287 -12 -350 -117 -1096
-694 -2048 -1606 -2649 -59 -39 -129 -83 -157 -98 l-49 -28 0 -54 0 -54 172 6
c1021 38 1936 529 2528 1357 235 328 397 679 501 1084 l33 128 26 -108 c202
-820 719 -1532 1434 -1976 392 -244 824 -396 1316 -464 175 -25 605 -25 780 0
399 55 738 158 1070 327 327 165 593 361 856 631 406 416 684 917 824 1482
l26 108 33 -128 c194 -756 629 -1392 1261 -1844 517 -370 1118 -573 1768 -597
l172 -6 0 54 0 54 -49 28 c-250 140 -592 411 -795 630 -558 602 -882 1310
-968 2117 -16 148 -16 552 0 700 117 1096 694 2048 1606 2649 59 39 129 83
157 98 l49 28 0 54 0 54 -172 -6 c-1021 -38 -1936 -529 -2528 -1357 -235 -328
-397 -679 -501 -1084 l-33 -128 -26 108 c-202 820 -719 1532 -1434 1976 -320
199 -698 349 -1066 422 -247 49 -357 60 -640 60 -197 0 -297 -5 -390 -18 -399
-55 -738 -158 -1070 -327 -327 -165 -593 -361 -856 -631 -406 -416 -684 -917
-824 -1482 l-26 -108 -33 128 c-104 405 -266 756 -501 1084 -592 828 -1507
1319 -2527 1357 l-173 6 0 -54z m6770 -104 c1064 -132 1968 -782 2429 -1746
114 -239 197 -491 246 -754 43 -231 50 -310 50 -575 0 -265 -7 -344 -50 -575
-214 -1145 -1066 -2081 -2187 -2400 -301 -86 -535 -118 -858 -118 -323 0 -557
32 -858 118 -940 268 -1703 974 -2047 1894 -80 213 -141 465 -177 731 -17 126
-17 574 0 700 7 52 24 154 37 225 219 1174 1104 2121 2263 2420 201 53 353 77
612 99 89 8 418 -4 540 -19z m-6340 0 c176 -16 475 -85 666 -153 454 -162 813
-391 1159 -737 409 -408 674 -869 814 -1417 66 -256 94 -486 94 -768 0 -282
-28 -512 -94 -768 -140 -548 -405 -1009 -814 -1417 -453 -454 -976 -733 -1599
-856 -95 -18 -327 -50 -333 -45 -1 1 50 41 115 88 269 198 505 424 709 680
753 943 1001 2191 667 3347 -229 789 -705 1474 -1364 1959 -141 104 -141 105
-110 98 14 -3 54 -8 90 -11z m12045 7 c-6 -5 -62 -47 -125 -94 -262 -193 -495
-417 -697 -670 -753 -943 -1001 -2191 -667 -3347 230 -794 709 -1479 1376
-1969 65 -47 116 -87 115 -88 -1 -1 -52 4 -113 11 -448 52 -901 213 -1287 456
-366 232 -736 602 -964 964 -257 408 -413 861 -464 1347 -16 145 -16 471 0
616 51 486 207 939 464 1347 228 362 598 732 964 964 418 264 843 407 1398
470 6 1 6 -2 0 -7z"/>
</g>
</svg>
